<svg width="101" height="39" viewBox="0 0 101 39" fill="none" xmlns="http://www.w3.org/2000/svg">
<rect x="2" y="5.46631" width="28" height="28" rx="3" stroke="#FF9160" stroke-width="4"/>
<rect x="10" y="13.8271" width="12" height="12.7217" rx="3" stroke="#FF9160" stroke-width="4"/>
<path d="M49.854 17.3311C49.722 17.3311 49.614 17.2951 49.53 17.2231C49.446 17.1391 49.404 17.0311 49.404 16.8991V5.18105C49.404 5.04905 49.446 4.94105 49.53 4.85705C49.614 4.77305 49.722 4.73105 49.854 4.73105H51.276C51.528 4.73105 51.708 4.84505 51.816 5.07305L55.29 11.5531L58.8 5.07305C58.92 4.84505 59.1 4.73105 59.34 4.73105H60.744C60.876 4.73105 60.984 4.77305 61.068 4.85705C61.152 4.94105 61.194 5.04905 61.194 5.18105V16.8991C61.194 17.0311 61.152 17.1391 61.068 17.2231C60.984 17.2951 60.876 17.3311 60.744 17.3311H59.232C59.112 17.3311 59.01 17.2891 58.926 17.2051C58.842 17.1211 58.8 17.0191 58.8 16.8991V9.10505L56.28 13.9111C56.124 14.1751 55.92 14.3071 55.668 14.3071H54.93C54.678 14.3071 54.474 14.1751 54.318 13.9111L51.798 9.10505V16.8991C51.798 17.0191 51.756 17.1211 51.672 17.2051C51.6 17.2891 51.498 17.3311 51.366 17.3311H49.854ZM69.0158 17.5111C67.3958 17.5111 66.1358 17.0971 65.2358 16.2691C64.3358 15.4411 63.8858 14.1871 63.8858 12.5071V5.18105C63.8858 5.04905 63.9218 4.94105 63.9938 4.85705C64.0778 4.77305 64.1858 4.73105 64.3178 4.73105H65.9558C66.0878 4.73105 66.1898 4.77305 66.2618 4.85705C66.3458 4.94105 66.3878 5.04905 66.3878 5.18105V12.5071C66.3878 13.4671 66.6158 14.1931 67.0718 14.6851C67.5278 15.1651 68.1758 15.4051 69.0158 15.4051C69.8558 15.4051 70.4978 15.1651 70.9418 14.6851C71.3978 14.1931 71.6258 13.4671 71.6258 12.5071V5.18105C71.6258 5.04905 71.6678 4.94105 71.7518 4.85705C71.8358 4.77305 71.9438 4.73105 72.0758 4.73105H73.6958C73.8278 4.73105 73.9298 4.77305 74.0018 4.85705C74.0858 4.94105 74.1278 5.04905 74.1278 5.18105V12.5071C74.1278 14.1871 73.6778 15.4411 72.7778 16.2691C71.8898 17.0971 70.6358 17.5111 69.0158 17.5111ZM81.1999 17.5111C80.1319 17.5111 79.2139 17.3491 78.4459 17.0251C77.6779 16.7011 77.0959 16.2751 76.6999 15.7471C76.3039 15.2191 76.0939 14.6491 76.0699 14.0371C76.0699 13.9291 76.1059 13.8391 76.1779 13.7671C76.2499 13.6951 76.3399 13.6591 76.4479 13.6591H78.0499C78.1939 13.6591 78.3019 13.6891 78.3739 13.7491C78.4579 13.7971 78.5359 13.8811 78.6079 14.0011C78.7279 14.4091 79.0039 14.7511 79.4359 15.0271C79.8679 15.3031 80.4559 15.4411 81.1999 15.4411C82.0519 15.4411 82.6939 15.3031 83.1259 15.0271C83.5579 14.7391 83.7739 14.3431 83.7739 13.8391C83.7739 13.5031 83.6599 13.2271 83.4319 13.0111C83.2159 12.7951 82.8859 12.6091 82.4419 12.4531C82.0099 12.2971 81.3619 12.1051 80.4979 11.8771C79.0819 11.5411 78.0439 11.0971 77.3839 10.5451C76.7359 9.98105 76.4119 9.18305 76.4119 8.15105C76.4119 7.45505 76.5979 6.83705 76.9699 6.29705C77.3539 5.75705 77.8999 5.33105 78.6079 5.01905C79.3279 4.70705 80.1619 4.55105 81.1099 4.55105C82.0939 4.55105 82.9459 4.72505 83.6659 5.07305C84.3859 5.42105 84.9319 5.85905 85.3039 6.38705C85.6879 6.90305 85.8919 7.41905 85.9159 7.93505C85.9159 8.04305 85.8799 8.13305 85.8079 8.20505C85.7359 8.27705 85.6459 8.31305 85.5379 8.31305H83.8639C83.6119 8.31305 83.4379 8.19905 83.3419 7.97105C83.2699 7.58705 83.0299 7.26905 82.6219 7.01705C82.2139 6.75305 81.7099 6.62105 81.1099 6.62105C80.4379 6.62105 79.9099 6.74705 79.5259 6.99905C79.1419 7.25105 78.9499 7.61705 78.9499 8.09705C78.9499 8.43305 79.0459 8.70905 79.2379 8.92505C79.4299 9.14105 79.7299 9.33305 80.1379 9.50105C80.5579 9.66905 81.1579 9.85505 81.9379 10.0591C82.9939 10.2991 83.8339 10.5691 84.4579 10.8691C85.0939 11.1691 85.5619 11.5471 85.8619 12.0031C86.1619 12.4591 86.3119 13.0411 86.3119 13.7491C86.3119 14.5171 86.0959 15.1891 85.6639 15.7651C85.2439 16.3291 84.6439 16.7611 83.8639 17.0611C83.0959 17.3611 82.2079 17.5111 81.1999 17.5111ZM88.8067 17.3311C88.6867 17.3311 88.5847 17.2891 88.5007 17.2051C88.4167 17.1211 88.3747 17.0191 88.3747 16.8991V5.18105C88.3747 5.04905 88.4107 4.94105 88.4827 4.85705C88.5667 4.77305 88.6747 4.73105 88.8067 4.73105H96.7267C96.8587 4.73105 96.9667 4.77305 97.0507 4.85705C97.1347 4.94105 97.1767 5.04905 97.1767 5.18105V6.36905C97.1767 6.50105 97.1347 6.60905 97.0507 6.69305C96.9667 6.76505 96.8587 6.80105 96.7267 6.80105H90.8047V9.98705H96.3307C96.4627 9.98705 96.5707 10.0291 96.6547 10.1131C96.7387 10.1851 96.7807 10.2871 96.7807 10.4191V11.5351C96.7807 11.6671 96.7387 11.7751 96.6547 11.8591C96.5707 11.9311 96.4627 11.9671 96.3307 11.9671H90.8047V15.2611H96.8707C97.0027 15.2611 97.1107 15.3031 97.1947 15.3871C97.2787 15.4711 97.3207 15.5791 97.3207 15.7111V16.8991C97.3207 17.0311 97.2787 17.1391 97.1947 17.2231C97.1107 17.2951 97.0027 17.3311 96.8707 17.3311H88.8067Z" fill="#FF9160"/>
<path d="M48.48 33.188C48.416 33.188 48.36 33.164 48.312 33.116C48.264 33.068 48.24 33.012 48.24 32.948C48.24 32.884 48.244 32.84 48.252 32.816L51.228 25.052C51.292 24.876 51.42 24.788 51.612 24.788H52.428C52.62 24.788 52.748 24.876 52.812 25.052L55.776 32.816L55.8 32.948C55.8 33.012 55.776 33.068 55.728 33.116C55.68 33.164 55.624 33.188 55.56 33.188H54.948C54.86 33.188 54.792 33.168 54.744 33.128C54.696 33.08 54.664 33.032 54.648 32.984L53.988 31.28H50.052L49.392 32.984C49.376 33.032 49.34 33.08 49.284 33.128C49.236 33.168 49.172 33.188 49.092 33.188H48.48ZM53.64 30.248L52.02 25.988L50.4 30.248H53.64ZM59.3768 33.308C58.5208 33.308 57.8488 33.068 57.3608 32.588C56.8808 32.1 56.6248 31.42 56.5928 30.548L56.5808 30.068L56.5928 29.588C56.6248 28.716 56.8808 28.04 57.3608 27.56C57.8488 27.072 58.5208 26.828 59.3768 26.828C59.9528 26.828 60.4408 26.932 60.8408 27.14C61.2408 27.348 61.5368 27.604 61.7288 27.908C61.9288 28.212 62.0368 28.516 62.0528 28.82C62.0608 28.9 62.0368 28.964 61.9808 29.012C61.9248 29.06 61.8568 29.084 61.7768 29.084H61.2008C61.1208 29.084 61.0608 29.068 61.0208 29.036C60.9808 29.004 60.9408 28.94 60.9008 28.844C60.7648 28.46 60.5728 28.188 60.3248 28.028C60.0768 27.86 59.7648 27.776 59.3888 27.776C58.8928 27.776 58.4968 27.932 58.2008 28.244C57.9128 28.548 57.7568 29.016 57.7327 29.648L57.7208 30.08L57.7327 30.488C57.7568 31.128 57.9128 31.6 58.2008 31.904C58.4888 32.208 58.8848 32.36 59.3888 32.36C59.7648 32.36 60.0768 32.28 60.3248 32.12C60.5728 31.952 60.7648 31.676 60.9008 31.292C60.9408 31.196 60.9808 31.132 61.0208 31.1C61.0608 31.06 61.1208 31.04 61.2008 31.04H61.7768C61.8568 31.04 61.9248 31.068 61.9808 31.124C62.0368 31.172 62.0608 31.236 62.0528 31.316C62.0368 31.612 61.9288 31.916 61.7288 32.228C61.5368 32.532 61.2408 32.788 60.8408 32.996C60.4488 33.204 59.9608 33.308 59.3768 33.308ZM65.2178 33.308C64.8258 33.308 64.4618 33.228 64.1258 33.068C63.7898 32.908 63.5218 32.692 63.3218 32.42C63.1298 32.14 63.0338 31.832 63.0338 31.496C63.0338 30.968 63.2498 30.536 63.6818 30.2C64.1218 29.856 64.7138 29.632 65.4578 29.528L67.2458 29.276V28.928C67.2458 28.112 66.7778 27.704 65.8418 27.704C65.4898 27.704 65.2018 27.78 64.9778 27.932C64.7538 28.076 64.5858 28.248 64.4738 28.448C64.4498 28.52 64.4178 28.572 64.3778 28.604C64.3458 28.636 64.2978 28.652 64.2338 28.652H63.7178C63.6458 28.652 63.5818 28.628 63.5258 28.58C63.4778 28.524 63.4538 28.46 63.4538 28.388C63.4618 28.196 63.5498 27.98 63.7178 27.74C63.8938 27.492 64.1618 27.28 64.5218 27.104C64.8818 26.92 65.3258 26.828 65.8538 26.828C66.7498 26.828 67.3938 27.04 67.7858 27.464C68.1778 27.88 68.3738 28.4 68.3738 29.024V32.912C68.3738 32.992 68.3458 33.06 68.2898 33.116C68.2418 33.164 68.1778 33.188 68.0978 33.188H67.5458C67.4658 33.188 67.3978 33.164 67.3418 33.116C67.2938 33.06 67.2698 32.992 67.2698 32.912V32.396C67.0938 32.652 66.8378 32.868 66.5018 33.044C66.1658 33.22 65.7378 33.308 65.2178 33.308ZM65.4698 32.408C65.9898 32.408 66.4138 32.24 66.7418 31.904C67.0778 31.56 67.2458 31.068 67.2458 30.428V30.092L65.8538 30.296C65.2858 30.376 64.8578 30.512 64.5698 30.704C64.2818 30.888 64.1378 31.124 64.1378 31.412C64.1378 31.732 64.2698 31.98 64.5338 32.156C64.7978 32.324 65.1098 32.408 65.4698 32.408ZM72.3789 33.308C71.5469 33.308 70.9189 33.036 70.4949 32.492C70.0709 31.948 69.8469 31.26 69.8229 30.428L69.8109 30.068L69.8229 29.708C69.8469 28.884 70.0709 28.2 70.4949 27.656C70.9189 27.104 71.5469 26.828 72.3789 26.828C73.2029 26.828 73.8509 27.12 74.3229 27.704V24.944C74.3229 24.864 74.3469 24.8 74.3949 24.752C74.4509 24.696 74.5189 24.668 74.5989 24.668H75.1749C75.2549 24.668 75.3189 24.696 75.3669 24.752C75.4229 24.8 75.4509 24.864 75.4509 24.944V32.912C75.4509 32.992 75.4229 33.06 75.3669 33.116C75.3189 33.164 75.2549 33.188 75.1749 33.188H74.6349C74.5549 33.188 74.4869 33.164 74.4309 33.116C74.3829 33.06 74.3589 32.992 74.3589 32.912V32.408C73.8949 33.008 73.2349 33.308 72.3789 33.308ZM72.6309 32.336C73.1829 32.336 73.5949 32.156 73.8669 31.796C74.1469 31.428 74.2989 30.992 74.3229 30.488C74.3309 30.4 74.3349 30.248 74.3349 30.032C74.3349 29.808 74.3309 29.652 74.3229 29.564C74.3069 29.092 74.1549 28.68 73.8669 28.328C73.5789 27.976 73.1669 27.8 72.6309 27.8C72.0629 27.8 71.6469 27.976 71.3829 28.328C71.1269 28.68 70.9869 29.144 70.9629 29.72L70.9509 30.068C70.9509 31.58 71.5109 32.336 72.6309 32.336ZM79.7317 33.308C78.9077 33.308 78.2477 33.056 77.7517 32.552C77.2637 32.04 76.9957 31.344 76.9477 30.464L76.9357 30.056L76.9477 29.66C77.0037 28.796 77.2757 28.108 77.7637 27.596C78.2597 27.084 78.9117 26.828 79.7197 26.828C80.6077 26.828 81.2957 27.112 81.7837 27.68C82.2717 28.24 82.5157 29 82.5157 29.96V30.164C82.5157 30.244 82.4877 30.312 82.4317 30.368C82.3837 30.416 82.3197 30.44 82.2397 30.44H78.0877V30.548C78.1117 31.068 78.2677 31.512 78.5557 31.88C78.8517 32.24 79.2397 32.42 79.7197 32.42C80.0877 32.42 80.3877 32.348 80.6197 32.204C80.8597 32.052 81.0357 31.896 81.1477 31.736C81.2197 31.64 81.2717 31.584 81.3037 31.568C81.3437 31.544 81.4117 31.532 81.5077 31.532H82.0957C82.1677 31.532 82.2277 31.552 82.2757 31.592C82.3237 31.632 82.3477 31.688 82.3477 31.76C82.3477 31.936 82.2357 32.148 82.0117 32.396C81.7957 32.644 81.4877 32.86 81.0877 33.044C80.6957 33.22 80.2437 33.308 79.7317 33.308ZM81.3757 29.612V29.576C81.3757 29.024 81.2237 28.576 80.9197 28.232C80.6237 27.88 80.2237 27.704 79.7197 27.704C79.2157 27.704 78.8157 27.88 78.5197 28.232C78.2317 28.576 78.0877 29.024 78.0877 29.576V29.612H81.3757ZM84.2265 33.188C84.1465 33.188 84.0785 33.164 84.0225 33.116C83.9745 33.06 83.9505 32.992 83.9505 32.912V27.224C83.9505 27.144 83.9745 27.08 84.0225 27.032C84.0785 26.976 84.1465 26.948 84.2265 26.948H84.7665C84.8465 26.948 84.9105 26.976 84.9585 27.032C85.0145 27.08 85.0425 27.144 85.0425 27.224V27.644C85.4585 27.1 86.0385 26.828 86.7825 26.828C87.6705 26.828 88.2985 27.196 88.6665 27.932C88.8585 27.596 89.1305 27.328 89.4825 27.128C89.8345 26.928 90.2305 26.828 90.6705 26.828C91.3265 26.828 91.8625 27.052 92.2785 27.5C92.6945 27.948 92.9025 28.596 92.9025 29.444V32.912C92.9025 32.992 92.8745 33.06 92.8185 33.116C92.7705 33.164 92.7065 33.188 92.6265 33.188H92.0625C91.9825 33.188 91.9145 33.164 91.8585 33.116C91.8105 33.06 91.7865 32.992 91.7865 32.912V29.552C91.7865 28.928 91.6545 28.48 91.3905 28.208C91.1345 27.936 90.7945 27.8 90.3705 27.8C89.9945 27.8 89.6705 27.94 89.3985 28.22C89.1265 28.492 88.9905 28.936 88.9905 29.552V32.912C88.9905 32.992 88.9625 33.06 88.9065 33.116C88.8585 33.164 88.7945 33.188 88.7145 33.188H88.1505C88.0705 33.188 88.0025 33.164 87.9465 33.116C87.8985 33.06 87.8745 32.992 87.8745 32.912V29.552C87.8745 28.928 87.7385 28.48 87.4665 28.208C87.2025 27.936 86.8665 27.8 86.4585 27.8C86.0825 27.8 85.7585 27.94 85.4865 28.22C85.2145 28.492 85.0785 28.932 85.0785 29.54V32.912C85.0785 32.992 85.0505 33.06 84.9945 33.116C84.9465 33.164 84.8825 33.188 84.8025 33.188H84.2265ZM95.5191 35.468C95.4551 35.468 95.3991 35.444 95.3511 35.396C95.3031 35.348 95.2791 35.292 95.2791 35.228C95.2791 35.172 95.2991 35.1 95.3391 35.012L96.2631 32.816L93.9711 27.404C93.9311 27.3 93.9111 27.232 93.9111 27.2C93.9111 27.128 93.9351 27.068 93.9831 27.02C94.0311 26.972 94.0911 26.948 94.1631 26.948H94.7511C94.8791 26.948 94.9751 27.016 95.0391 27.152L96.8631 31.52L98.7351 27.152C98.7991 27.016 98.8991 26.948 99.0351 26.948H99.5991C99.6711 26.948 99.7311 26.972 99.7791 27.02C99.8271 27.068 99.8511 27.124 99.8511 27.188C99.8511 27.212 99.8311 27.284 99.7911 27.404L96.3831 35.264C96.3191 35.4 96.2191 35.468 96.0831 35.468H95.5191Z" fill="#FF9160"/>
</svg>
