<svg width="143" height="197" viewBox="0 0 143 197" fill="none" xmlns="http://www.w3.org/2000/svg">
<path d="M15.4785 137.176C15.4785 137.176 3.95924 178.938 6.47905 179.657C8.99885 180.378 21.599 185.777 21.599 185.777L33.4797 138.976L15.4785 137.176Z" fill="#F2515A"/>
<path d="M137.162 104.763C126.121 92.1422 92.5208 95.5393 92.5208 95.5393C92.5208 95.5393 55.7932 98.2238 31.5594 107.189C23.4921 110.174 17.685 123.926 13.8361 139.316L24.1189 144.016L18.719 189.377L10.6907 189.334C27.5858 192.121 135.85 195.042 137.642 188.252C139.562 180.97 148.202 117.383 137.162 104.763" fill="#5B94C0"/>
<path d="M119.872 191.65C130.291 191.009 137.199 189.925 137.641 188.251C137.199 189.925 130.291 191.009 119.872 191.65ZM137.644 188.238C137.644 188.237 137.645 188.235 137.645 188.233C137.645 188.236 137.644 188.237 137.644 188.238ZM137.649 188.222V188.22V188.222ZM137.656 188.191V188.19V188.191Z" fill="#B4BDC6"/>
<path d="M87.8507 192.416C56.3583 192.416 19.9132 190.855 10.6907 189.334L18.719 189.377L21.0375 169.905C34.3846 169.172 47.6482 167.293 60.8774 164.949C78.2175 161.877 95.3712 157.946 108.149 145.107C114.252 146.293 119.143 150.619 123.943 154.322C129.213 158.384 135.112 161.405 141 164.46C139.822 176.134 138.338 185.55 137.658 188.19V188.191C137.655 188.201 137.652 188.21 137.65 188.221V188.222C137.649 188.226 137.647 188.23 137.647 188.233C137.647 188.236 137.646 188.237 137.646 188.238C137.645 188.243 137.643 188.247 137.642 188.251C137.201 189.925 130.292 191.009 119.873 191.65C111.098 192.19 99.8315 192.416 87.8512 192.416" fill="#527EA4"/>
<path d="M108.001 145.096L142.202 144.737C142.202 144.737 141.481 193.337 133.201 195.498C124.921 197.657 37.079 193.337 37.079 193.337L5.03876 192.618C5.03876 192.618 -1.44204 191.897 2.51896 188.658C2.51896 188.658 -3.60155 185.057 3.23841 182.897C3.23841 182.897 -3.96185 180.737 4.31816 178.577C4.31816 178.577 -3.24125 179.657 5.03876 174.257C5.03876 174.257 13.6791 169.937 17.9992 172.097C22.3194 174.257 37.7996 177.497 37.7996 177.497C37.7996 177.497 95.7608 169.217 104.401 169.577L108.001 145.096Z" fill="#FB9C8D"/>
<path d="M142.127 147.789C142.184 145.873 142.201 144.737 142.201 144.737L108 145.096L107.545 148.192C119.074 148.157 130.602 148.032 142.127 147.789" fill="#F2515A"/>
<path d="M51.4797 89.4153C51.4797 89.4153 55.0793 101.655 57.2399 110.295C59.3994 118.936 92.5206 117.496 92.5206 96.6157C92.5206 96.6157 86.041 88.6947 89.6405 65.655C93.2412 42.6142 51.4797 89.4153 51.4797 89.4153Z" fill="#FB9C8D"/>
<path d="M76.2557 69.0029C75.4219 68.4299 74.5777 67.8728 73.7348 67.3124C63.2358 76.2409 51.4797 89.4153 51.4797 89.4153C51.4797 89.4153 54.9363 101.17 57.1073 109.774C65.894 109.907 85.8282 96.6759 87.3952 79.057C87.0143 77.57 86.4893 77.8365 86.2308 76.3233C83.456 73.3322 79.5579 71.2699 76.2557 69.0029Z" fill="#F2515A"/>
<path d="M81.7204 14.5338C81.7204 14.5338 47.8797 5.89345 39.2394 38.294C30.5991 70.6946 34.1987 103.095 60.839 98.0557C87.4806 93.0148 125.641 34.6933 81.7204 14.5338Z" fill="#FB9C8D"/>
<path d="M45.4795 79.0947C45.4795 79.0947 45.7826 79.1485 46.2996 79.208C46.8029 79.2949 47.5349 79.3544 48.3813 79.4848C48.8022 79.5545 49.2781 79.5568 49.7573 79.6289C50.2434 79.6758 50.7444 79.7616 51.2752 79.7844C51.8013 79.8267 52.3469 79.8393 52.8936 79.9091C53.4381 79.9995 54.002 79.9617 54.5613 79.9789C55.1206 80.0097 55.68 80.0406 56.2313 80.0715C56.7837 80.0647 57.327 80.0578 57.8532 80.0509C58.3805 80.0349 58.8963 80.0578 59.387 80.0738C59.8811 80.1093 60.3364 80.0338 60.7676 80.0303C62.481 79.9388 63.7198 80.0544 63.7198 80.0544C63.7198 80.0544 62.6812 80.64 60.9792 81.2519C60.5526 81.3938 60.0973 81.6134 59.5883 81.674C59.0828 81.7689 58.5486 81.8764 57.9893 81.9474C57.4311 82.0114 56.8535 82.1487 56.261 82.1567C55.6685 82.1498 55.0657 82.1418 54.4629 82.135C53.8613 82.0915 53.2574 82.0995 52.6729 81.9817C52.085 81.8982 51.5142 81.7598 50.9618 81.6557C50.4036 81.5757 49.8912 81.3515 49.3993 81.1948C48.9098 81.0266 48.4488 80.8768 48.0416 80.6709C47.6299 80.481 47.2638 80.2843 46.9424 80.1116C46.6176 79.9537 46.3522 79.741 46.1326 79.6014C45.6957 79.3075 45.4795 79.0947 45.4795 79.0947" fill="#F2515A"/>
<path d="M88.1997 71.6051C88.1997 71.6051 96.84 52.1844 104.04 57.8485C111.241 63.5127 98.9995 86.1703 88.1997 71.6051Z" fill="#F6826F"/>
<path d="M100.201 57.0147C100.201 57.0147 94.2853 58.0121 90.8401 68.534L86.0407 66.8549L92.04 51.7338C92.04 51.7338 82.1998 45.2541 86.52 29.6537C86.52 29.6537 72.5999 40.6937 53.3999 36.3736L63.4803 31.8132C63.4803 31.8132 48.3592 36.854 32.999 27.7333C32.999 27.7333 43.3196 3.01336 75.9604 7.09331C75.9604 7.09331 56.7593 3.49261 45.2389 10.4538C45.2389 10.4538 60.6002 -2.98704 81.7206 0.612513C104.74 4.53691 101.88 15.4934 101.88 15.4934L98.0404 13.8132C98.0404 13.8132 101.641 11.1733 108.601 15.013C115.561 18.8539 119.161 45.7345 105.241 58.2146C105.241 58.2146 102.841 57.0147 100.201 57.0147Z" fill="#A1444B"/>
<path d="M93.001 73.3346C93.359 73.2168 93.6987 73.0543 94.035 72.9022C94.3667 72.7387 94.6892 72.5614 94.9855 72.3612C95.2829 72.1645 95.5574 71.9368 95.7758 71.6875C95.8868 71.564 96.0012 71.4439 96.0664 71.3009C96.151 71.1671 96.2265 71.0332 96.2505 70.8857C96.302 70.7473 96.3329 70.6066 96.3192 70.4591C96.3294 70.3161 96.3409 70.1742 96.286 70.0255C96.2368 69.8791 96.2516 69.7339 96.1613 69.5898L95.9531 69.1585C95.8868 69.0156 95.7609 68.884 95.6752 68.7433C95.5756 68.6061 95.4922 68.4631 95.3824 68.3304L94.6755 67.5561L94.4021 67.2564L94.5314 66.8652C94.7498 66.2064 95.0175 65.599 95.2943 64.9791C95.5848 64.3694 95.8696 63.7529 96.2356 63.1707C96.5902 62.584 96.9803 62.0098 97.4572 61.4699C97.6848 61.1954 97.9559 60.9437 98.2602 60.7104C98.394 60.5846 98.5816 60.4896 98.7531 60.389C98.9224 60.2838 99.0997 60.19 99.3216 60.1385C99.7151 59.9898 100.222 59.9841 100.642 60.1076C100.863 60.2037 101.021 60.2494 101.281 60.4061L101.666 60.7138C101.954 60.9792 102.247 61.3326 102.405 61.6735C102.575 62.0258 102.666 62.4044 102.703 62.7727C102.775 63.5162 102.611 64.215 102.378 64.8544C102.134 65.4938 101.804 66.0851 101.401 66.6147C101.845 65.3828 102.143 64.0457 101.875 62.9065C101.804 62.6274 101.693 62.3712 101.542 62.1516C101.386 61.9114 101.232 61.773 101.029 61.6026L100.612 61.3395L100.337 61.2709C100.134 61.2446 99.945 61.2388 99.7311 61.3429C99.6281 61.3635 99.5206 61.4321 99.4154 61.5122C99.3102 61.5877 99.1992 61.6392 99.1009 61.7501C98.8927 61.932 98.6971 62.1424 98.5061 62.3769C98.1206 62.831 97.7775 63.3549 97.4652 63.8993C96.8304 64.9814 96.2711 66.1595 95.7907 67.3239L95.6454 66.633L96.3935 67.5675C96.5113 67.7311 96.6097 67.9175 96.7183 68.0925C96.819 68.2744 96.9379 68.4345 97.0111 68.6393L97.225 69.2478C97.3108 69.4399 97.3005 69.6881 97.336 69.9032C97.3795 70.1228 97.3486 70.3538 97.3074 70.5826C97.2914 70.8159 97.2056 71.0287 97.0992 71.2323C97.0158 71.4484 96.8819 71.6234 96.7389 71.7904C96.6108 71.9712 96.4461 72.1027 96.2848 72.2354C95.9634 72.503 95.5997 72.6849 95.2394 72.8382C94.8803 72.9972 94.5039 73.099 94.131 73.1836C93.7582 73.2671 93.3784 73.3151 93.001 73.3346Z" fill="#F2515A"/>
<path d="M69.4796 56.2941C69.0152 58.3633 67.9045 59.8765 66.9986 59.6729C66.0939 59.4693 65.737 57.6267 66.2014 55.5575C66.6669 53.4884 67.7776 51.9763 68.6823 52.1799C69.5882 52.3823 69.9451 54.225 69.4796 56.2941Z" fill="#29202E"/>
<path d="M53.8795 72.3749C53.8795 72.3749 53.4494 72.2834 52.7334 71.9814C52.0368 71.6588 50.9983 71.1681 50.0523 70.0792C49.588 69.5382 49.1384 68.8233 48.9669 67.9277C48.9394 67.7013 48.912 67.4737 48.8845 67.2415C48.896 67.0081 48.9074 66.7725 48.9188 66.5334L48.9246 66.4431L48.9555 66.3081L48.9875 66.1651L49.0584 65.8792L49.206 65.2981C49.3787 64.5261 49.6749 63.6899 49.9826 62.8641C50.2857 62.0177 50.6174 61.2205 50.9491 60.4232C51.3014 59.6329 51.648 58.8368 52.0151 58.0716C52.3652 57.2972 52.7678 56.5618 53.1258 55.8366C53.8773 54.4034 54.6104 53.0823 55.2967 51.9785C56.6327 49.755 57.7204 48.3744 57.7204 48.3744C57.7204 48.3744 57.2858 50.0752 56.4165 52.5115C55.9853 53.7308 55.4649 55.1434 54.8541 56.6304C54.5487 57.3727 54.2662 58.1551 53.9196 58.9226C53.5764 59.6924 53.263 60.4839 52.9348 61.2708C52.5825 62.0509 52.2325 62.8298 51.9431 63.5698C51.6526 64.3259 51.2705 65.0145 51.0338 65.8037C50.7524 66.6375 50.4996 67.1156 50.5602 67.715C50.5922 68.288 50.7833 68.8577 51.0589 69.3632C51.6251 70.3789 52.4189 71.1213 52.9622 71.62C53.5215 72.1164 53.8795 72.3749 53.8795 72.3749" fill="#F2515A"/>
<path d="M49.0394 52.5824C48.5738 54.6516 47.4632 56.1637 46.5584 55.9612C45.6525 55.7576 45.2957 53.915 45.7612 51.8458C46.2256 49.7767 47.3374 48.2646 48.2421 48.467C49.1469 48.6706 49.5037 50.5133 49.0394 52.5824Z" fill="#29202E"/>
<path d="M64.5476 47.5577C64.5476 47.5577 64.6826 47.3393 64.9857 47.0327C65.2842 46.7159 65.7543 46.3236 66.3823 45.9358C67.0159 45.5698 67.8097 45.2061 68.7362 45.0162C69.1926 44.8995 69.6902 44.8686 70.1911 44.832C70.699 44.8526 71.2183 44.8344 71.733 44.9556L72.5016 45.126C72.7533 45.1969 72.9935 45.3113 73.236 45.4051C73.7289 45.5721 74.1556 45.866 74.5616 46.1417C74.9848 46.3922 75.2925 46.7639 75.6036 47.0727C75.9227 47.3781 76.1355 47.7373 76.3299 48.061C76.5141 48.3916 76.7017 48.6718 76.784 48.9715C76.8881 49.2551 76.9522 49.5159 77.0071 49.7229C77.1123 50.1404 77.1363 50.3864 77.1363 50.3864C77.1363 50.3864 76.8973 50.2708 76.5404 50.0569C76.3643 49.9483 76.1469 49.8259 75.9308 49.6692C75.7203 49.5056 75.4115 49.4015 75.1461 49.238C74.8693 49.0836 74.5948 48.8994 74.2677 48.7804C73.9485 48.6512 73.658 48.459 73.3092 48.3675C72.974 48.2509 72.6492 48.1079 72.29 48.0335L71.7673 47.8849L71.2217 47.7888C70.8694 47.6801 70.4817 47.7018 70.1168 47.6206C69.7393 47.6127 69.3665 47.5509 68.9924 47.5497C68.2455 47.5085 67.5146 47.5291 66.8604 47.5268C65.4729 47.5451 64.5476 47.5577 64.5476 47.5577" fill="#29202E"/>
<path d="M41.9871 43.4778C41.9871 43.4778 42.122 43.2593 42.4251 42.9516C42.7237 42.6359 43.1938 42.2436 43.8217 41.8558C44.4554 41.4898 45.2492 41.1261 46.1745 40.9351C46.6321 40.8196 47.1296 40.7875 47.6306 40.7521C48.1384 40.7727 48.6566 40.7544 49.1724 40.8756L49.9399 41.046C50.1927 41.117 50.4329 41.2313 50.6754 41.324C51.1684 41.4921 51.595 41.7861 52.0011 42.0617C52.4243 42.3122 52.732 42.684 53.0431 42.9928C53.3622 43.2982 53.575 43.6573 53.7694 43.981C53.9536 44.3116 54.14 44.5918 54.2235 44.8915C54.3276 45.1752 54.3916 45.436 54.4465 45.643C54.5518 46.0605 54.5758 46.3053 54.5758 46.3053C54.5758 46.3053 54.3356 46.1897 53.9799 45.977C53.8037 45.8683 53.5864 45.7459 53.3702 45.5892C53.1586 45.4257 52.8509 45.3216 52.5844 45.158C52.3088 45.0036 52.0342 44.8194 51.706 44.7005C51.388 44.5712 51.0975 44.3791 50.7486 44.2876C50.4135 44.1698 50.0886 44.0279 49.7295 43.9536L49.2068 43.8049L48.6612 43.7088C48.3089 43.6001 47.9211 43.6207 47.5562 43.5407C47.1788 43.5315 46.8059 43.4709 46.4319 43.4698C45.685 43.4286 44.9541 43.4492 44.2998 43.4469C42.9124 43.4652 41.9871 43.4778 41.9871 43.4778Z" fill="#29202E"/>
</svg>
